<?xml version="1.0" encoding="UTF-8" standalone="no"?>
<!-- Created with Inkscape (http://www.inkscape.org/) -->

<svg
   width="19.049999mm"
   height="19.050001mm"
   viewBox="0 0 19.049999 19.050001"
   version="1.1"
   id="svg1"
   xmlns="http://www.w3.org/2000/svg"
   xmlns:svg="http://www.w3.org/2000/svg">
   <path
     id="folder"
     fill="#ffffff"
     d="M 5.7774251 4.6834351 C 4.9833777 4.6834351 4.2224813 5.2916807 4.2224813 6.1443278 L 4.2224813 9.1818685 A 0.52916503 0.52916503 0 0 0 4.2266154 9.2061564 L 4.2224813 13.708724 A 0.52916503 0.52916503 0 0 0 4.2224813 13.709241 C 4.2224813 13.709936 4.2224799 13.710613 4.2224813 13.711308 L 4.2224813 13.773319 A 0.52916503 0.52916503 0 0 0 4.2462524 13.925765 C 4.3474999 14.385789 4.7625591 14.736568 5.2498088 14.736568 C 5.3174476 14.736568 5.3839693 14.729599 5.4482463 14.716931 A 0.52916503 0.52916503 0 0 0 5.5469482 14.736568 L 11.896431 14.736568 C 12.627291 14.736749 13.219949 14.252885 13.515454 13.630693 A 0.52921795 0.52921795 0 0 0 13.52734 13.601754 L 15.562358 8.5860392 A 0.52921795 0.52921795 0 0 0 15.070398 7.8574015 L 7.6620646 7.8574015 A 0.52921795 0.52921795 0 0 0 7.1639038 8.2108683 L 5.2813314 13.533024 L 5.2849487 8.9823975 A 0.52916503 0.52916503 0 0 0 5.2813314 8.9234863 L 5.2813314 6.1443278 C 5.2813314 5.8634868 5.440101 5.7402181 5.7774251 5.7402181 L 7.4315877 5.7402181 C 7.6116924 5.7402181 7.7524323 5.7977041 7.827946 5.8575236 C 7.90346 5.9173426 7.9276815 5.9583402 7.9276815 6.0564779 C 7.9276815 6.5358418 8.1642197 6.9199564 8.4160238 7.1034424 C 8.5879466 7.2287201 8.7688774 7.280636 8.8676758 7.3013631 A 0.52916503 0.52916503 0 0 0 8.8966146 7.3070475 C 8.9263809 7.3124881 8.9431234 7.3142822 8.9431234 7.3142822 A 0.52916503 0.52916503 0 0 0 8.9544922 7.3137655 A 0.52916503 0.52916503 0 0 0 8.9963501 7.3184163 L 12.148612 7.3184163 A 0.52916503 0.52916503 0 0 0 12.677779 6.7892497 A 0.52916503 0.52916503 0 0 0 12.148612 6.2595662 L 9.0511271 6.2595662 C 9.0503233 6.2577539 9.048021 6.2545937 9.0392415 6.2481974 C 9.0209065 6.2348364 8.9865316 6.2544442 8.9865316 6.0564779 C 8.9865316 5.6423756 8.7798013 5.2617349 8.4842367 5.0276001 C 8.1886719 4.7934656 7.8182201 4.6834351 7.4315877 4.6834351 L 5.7774251 4.6834351 z " />
</svg>
