<?xml version="1.0" encoding="UTF-8" standalone="no"?>
<!-- Created with Inkscape (http://www.inkscape.org/) -->

<svg
   width="19.049999mm"
   height="19.050001mm"
   viewBox="0 0 19.049999 19.050001"
   version="1.1"
   id="svg1"
   xmlns="http://www.w3.org/2000/svg"
   xmlns:svg="http://www.w3.org/2000/svg">
   <path
     id="file"
     fill="#ffffff"
     d="M 10.68421,13 H 4.368421 C 3.0603816,13 2,11.939618 2,10.631579 2,9.5993098 2.6603868,8.7212892 3.5817263,8.3969418 c -0.00185,-0.04436 -0.00278,-0.088966 -0.00278,-0.1337842 0,-1.7440579 1.4138368,-3.1578947 3.1578947,-3.1578947 1.2492947,0 2.3291526,0.7254537 2.8412921,1.7780763 0.3442342,-0.1287395 0.7169449,-0.1991289 1.1060759,-0.1991289 1.27279,0 2.369685,0.753 2.869579,1.8378236 0.32329,-0.1655052 0.689606,-0.2588763 1.07779,-0.2588763 C 15.939658,8.2631576 17,9.3235388 17,10.631579 17,11.939618 15.939658,13 14.631579,13 Z" />
</svg>
